<svg width="17" height="16" viewBox="0 0 17 16" fill="none" xmlns="http://www.w3.org/2000/svg">
<g filter="url(#filter0_d_94_135)">
<path fill-rule="evenodd" clip-rule="evenodd" d="M4.125 5.00003C4.125 4.91715 4.15792 4.83766 4.21653 4.77906C4.27513 4.72045 4.35462 4.68753 4.4375 4.68753H11.8081L9.84125 2.72128C9.78257 2.6626 9.74961 2.58301 9.74961 2.50003C9.74961 2.41704 9.78257 2.33746 9.84125 2.27878C9.89993 2.2201 9.97952 2.18713 10.0625 2.18713C10.1455 2.18713 10.2251 2.2201 10.2838 2.27878L12.7838 4.77878C12.8129 4.80781 12.8359 4.84229 12.8517 4.88026C12.8674 4.91822 12.8756 4.95892 12.8756 5.00003C12.8756 5.04113 12.8674 5.08183 12.8517 5.1198C12.8359 5.15777 12.8129 5.19225 12.7838 5.22128L10.2838 7.72128C10.2251 7.77996 10.1455 7.81292 10.0625 7.81292C9.97952 7.81292 9.89993 7.77996 9.84125 7.72128C9.78257 7.6626 9.74961 7.58301 9.74961 7.50003C9.74961 7.41704 9.78257 7.33746 9.84125 7.27878L11.8081 5.31253H4.4375C4.35462 5.31253 4.27513 5.2796 4.21653 5.221C4.15792 5.16239 4.125 5.08291 4.125 5.00003V5.00003Z" fill="white"/>
</g>
<defs>
<filter id="filter0_d_94_135" x="-0.5" y="0" width="18" height="18" filterUnits="userSpaceOnUse" color-interpolation-filters="sRGB">
<feFlood flood-opacity="0" result="BackgroundImageFix"/>
<feColorMatrix in="SourceAlpha" type="matrix" values="0 0 0 0 0 0 0 0 0 0 0 0 0 0 0 0 0 0 127 0" result="hardAlpha"/>
<feOffset dy="4"/>
<feGaussianBlur stdDeviation="2"/>
<feComposite in2="hardAlpha" operator="out"/>
<feColorMatrix type="matrix" values="0 0 0 0 0 0 0 0 0 0 0 0 0 0 0 0 0 0 0.25 0"/>
<feBlend mode="normal" in2="BackgroundImageFix" result="effect1_dropShadow_94_135"/>
<feBlend mode="normal" in="SourceGraphic" in2="effect1_dropShadow_94_135" result="shape"/>
</filter>
</defs>
</svg>
