<svg width="18" height="14" viewBox="0 0 18 14" fill="none" xmlns="http://www.w3.org/2000/svg">
<g filter="url(#filter0_d_84083_3)">
<path fill-rule="evenodd" clip-rule="evenodd" d="M4.625 3C4.625 2.91712 4.65792 2.83763 4.71653 2.77903C4.77513 2.72042 4.85462 2.6875 4.9375 2.6875H12.3081L10.3412 0.721248C10.2826 0.662569 10.2496 0.582983 10.2496 0.499998C10.2496 0.417013 10.2826 0.337427 10.3412 0.278748C10.3999 0.220069 10.4795 0.187103 10.5625 0.187103C10.6455 0.187103 10.7251 0.220069 10.7838 0.278748L13.2838 2.77875C13.3129 2.80778 13.3359 2.84226 13.3517 2.88023C13.3674 2.91819 13.3756 2.95889 13.3756 3C13.3756 3.0411 13.3674 3.0818 13.3517 3.11977C13.3359 3.15773 13.3129 3.19222 13.2838 3.22125L10.7838 5.72125C10.7251 5.77993 10.6455 5.81289 10.5625 5.81289C10.4795 5.81289 10.3999 5.77993 10.3412 5.72125C10.2826 5.66257 10.2496 5.58298 10.2496 5.5C10.2496 5.41701 10.2826 5.33743 10.3412 5.27875L12.3081 3.3125H4.9375C4.85462 3.3125 4.77513 3.27957 4.71653 3.22097C4.65792 3.16236 4.625 3.08288 4.625 3V3Z" fill="white"/>
</g>
<defs>
<filter id="filter0_d_84083_3" x="0.625" y="0.187103" width="16.7505" height="13.6258" filterUnits="userSpaceOnUse" color-interpolation-filters="sRGB">
<feFlood flood-opacity="0" result="BackgroundImageFix"/>
<feColorMatrix in="SourceAlpha" type="matrix" values="0 0 0 0 0 0 0 0 0 0 0 0 0 0 0 0 0 0 127 0" result="hardAlpha"/>
<feOffset dy="4"/>
<feGaussianBlur stdDeviation="2"/>
<feComposite in2="hardAlpha" operator="out"/>
<feColorMatrix type="matrix" values="0 0 0 0 0 0 0 0 0 0 0 0 0 0 0 0 0 0 0.25 0"/>
<feBlend mode="normal" in2="BackgroundImageFix" result="effect1_dropShadow_84083_3"/>
<feBlend mode="normal" in="SourceGraphic" in2="effect1_dropShadow_84083_3" result="shape"/>
</filter>
</defs>
</svg>
